<svg width="64" height="64" viewBox="0 0 64 64" fill="none" xmlns="http://www.w3.org/2000/svg">
<circle cx="32" cy="32" r="31.25" stroke="#427645" stroke-width="1.5"/>
<path d="M51.2109 17.955V19.6309C51.1922 19.9197 51.065 20.1906 50.8552 20.3885C50.6453 20.5864 50.3684 20.6965 50.0808 20.6965C49.7932 20.6965 49.5163 20.5864 49.3064 20.3885C49.0965 20.1906 48.9693 19.9197 48.9506 19.6309V17.955C48.9968 17.574 48.9577 17.1874 48.8362 16.8236C48.7147 16.4597 48.5138 16.1278 48.2483 15.8522C47.9828 15.5766 47.6594 15.3642 47.3018 15.2307C46.9442 15.0972 46.5614 15.0458 46.1815 15.0805H17.9182C17.5322 15.0331 17.1405 15.0749 16.773 15.2028C16.4055 15.3307 16.0718 15.5412 15.7973 15.8183C15.5228 16.0955 15.3148 16.432 15.1889 16.8023C15.0631 17.1725 15.0229 17.5668 15.0712 17.955V19.6309C15.0525 19.9197 14.9253 20.1906 14.7155 20.3885C14.5056 20.5864 14.2287 20.6965 13.9411 20.6965C13.6535 20.6965 13.3766 20.5864 13.1667 20.3885C12.9568 20.1906 12.8296 19.9197 12.8109 19.6309V17.955C12.7649 17.2679 12.8654 16.5788 13.1057 15.934C13.346 15.2892 13.7205 14.7035 14.2042 14.2163C14.6879 13.7291 15.2695 13.3516 15.9101 13.1092C16.5506 12.8668 17.2353 12.765 17.9182 12.8107H46.1803C46.8582 12.7713 47.5366 12.878 48.1702 13.1237C48.8038 13.3694 49.378 13.7485 49.8542 14.2355C50.3305 14.7226 50.6979 15.3063 50.9319 15.9478C51.1659 16.5892 51.261 17.2736 51.2109 17.955ZM51.2109 43.1166V44.4117C51.2732 45.7915 50.7961 47.141 49.8818 48.1712C48.9675 49.2014 47.6887 49.8304 46.3192 49.9235C46.273 49.9281 46.2265 49.9281 46.1803 49.9235H17.9182C17.2169 49.9193 16.5239 49.7711 15.8817 49.4878C15.2394 49.2045 14.6615 48.7922 14.1833 48.276C13.705 47.7599 13.3366 47.1509 13.1006 46.4864C12.8647 45.8219 12.7661 45.1159 12.8109 44.4117V43.8707C12.8296 43.5819 12.9568 43.311 13.1667 43.1131C13.3766 42.9152 13.6535 42.8051 13.9411 42.8051C14.2287 42.8051 14.5056 42.9152 14.7155 43.1131C14.9253 43.311 15.0525 43.5819 15.0712 43.8707V44.4117C15.0239 44.8205 15.0631 45.2347 15.1863 45.6272C15.3095 46.0196 15.5139 46.3814 15.786 46.6887C16.0581 46.996 16.3917 47.2418 16.765 47.41C17.1383 47.5782 17.5427 47.6649 17.9517 47.6645H46.1037C46.5044 47.6434 46.8968 47.5419 47.2579 47.366C47.6191 47.1902 47.9417 46.9435 48.2069 46.6406C48.4721 46.3376 48.6745 45.9844 48.8022 45.6016C48.9299 45.2189 48.9804 44.8143 48.9506 44.4117V43.1166C48.9693 42.8277 49.0965 42.5569 49.3064 42.359C49.5163 42.161 49.7932 42.0509 50.0808 42.0509C50.3684 42.0509 50.6453 42.161 50.8552 42.359C51.065 42.5569 51.1922 42.8277 51.2109 43.1166ZM21.3984 28.5088C21.3153 28.5767 21.2441 28.6581 21.1877 28.7497C20.3985 29.3653 19.8716 30.2599 19.714 31.252C19.6665 32.1155 19.7976 32.9795 20.0991 33.7893C20.4006 34.5991 20.8659 35.3371 21.4654 35.9566C22.8674 37.6228 22.8674 39.1782 22.7129 41.1733C22.5693 43.1009 22.5262 44.9647 22.5262 45.0369C22.5169 45.3145 22.6155 45.5848 22.801 45.7904C22.9866 45.996 23.2444 46.1207 23.5198 46.1381C23.7912 46.1247 24.0473 46.0079 24.2363 45.8115C24.4252 45.6151 24.5329 45.3537 24.5375 45.0803C24.5375 45.0803 24.5805 43.1527 24.7242 41.2889C24.9304 40.117 24.8832 38.9141 24.5859 37.7622C24.2886 36.6102 23.7482 35.5362 23.0014 34.6133C22.5865 34.2179 22.2571 33.7405 22.034 33.211C21.8109 32.6816 21.6989 32.1114 21.7049 31.5364C21.7661 31.2308 21.8939 30.9427 22.0789 30.6927C22.264 30.4428 22.5018 30.2371 22.7752 30.0906C23.7068 29.7313 24.7416 29.7556 25.6556 30.1581C25.8194 30.2271 25.9582 30.3449 26.0535 30.4957C26.1487 30.6464 26.1958 30.8229 26.1884 31.0014C26.1884 33.3447 26.1884 34.7591 27.7627 35.9482C28.5818 36.5206 29.5493 36.8397 30.5462 36.8662C30.7658 36.8781 30.9841 36.9088 31.1986 36.9578C31.2705 37.0228 31.3286 37.1015 31.3698 37.1895C31.4109 37.2774 31.4341 37.3727 31.4381 37.4698C31.4409 37.5242 31.4267 37.5781 31.3975 37.6239C31.3683 37.6697 31.3255 37.7051 31.2753 37.7252C30.1063 38.3112 29.1654 39.2733 28.6019 40.4588C28.2567 41.9137 28.1756 43.4193 28.3625 44.9032C28.3949 45.1673 28.5283 45.4083 28.7342 45.5751C28.9401 45.742 29.2025 45.8217 29.4658 45.7972C29.7291 45.7728 29.9726 45.6462 30.1448 45.4443C30.3169 45.2423 30.4042 44.9809 30.3881 44.7153C30.2428 43.5489 30.2832 42.3666 30.5079 41.213C30.7569 40.6106 31.2753 40.1408 32.3755 39.4553C32.7504 39.2299 33.0539 38.9018 33.2502 38.5092C33.4465 38.1166 33.5277 37.6758 33.4841 37.2385V37.0891C33.5178 36.8507 33.4669 36.608 33.3404 36.4036C33.1599 36.0898 33.1002 35.7202 33.1728 35.3651C33.3888 34.7527 33.8326 34.2486 34.4107 33.9591L34.449 33.9206C35.2124 33.781 35.9192 33.422 36.4843 32.8869C37.3031 32.1322 37.9135 31.1767 38.2559 30.1138C38.5984 29.0509 38.6611 27.9167 38.4381 26.8221C38.4303 26.6795 38.4143 26.5375 38.3902 26.3968C38.4139 25.0867 38.9007 23.8279 39.7634 22.8464C41.0396 21.0694 42.5804 19.161 42.5959 19.1417C42.7584 18.9297 42.832 18.662 42.8009 18.3961C42.7698 18.1302 42.6366 17.887 42.4297 17.7186C42.2228 17.5502 41.9587 17.47 41.6937 17.495C41.4288 17.5201 41.1841 17.6484 41.012 17.8526C40.9498 17.9297 39.4186 19.8236 38.1316 21.6489C36.9784 23.0279 36.3578 24.779 36.3837 26.5812C36.3914 26.7425 36.4073 26.9034 36.4316 27.0631C36.6159 27.8407 36.5902 28.6538 36.3572 29.4181C36.1242 30.1824 35.6923 30.8701 35.1063 31.4099C34.8673 31.6103 34.591 31.7606 34.2935 31.8519C33.996 31.9433 33.6833 31.9739 33.3739 31.9419C33.0645 31.9099 32.7646 31.816 32.4917 31.6657C32.2189 31.5153 31.9787 31.3116 31.7853 31.0665C31.5985 30.6605 31.6033 30.5352 31.6991 29.6509C31.7326 29.3316 31.7709 28.9461 31.8092 28.4582C31.9864 26.0487 29.6878 24.8258 28.4487 24.5355C28.4233 24.5309 28.3974 24.5309 28.3721 24.5355C28.3721 24.5355 26.5236 24.2499 25.1612 23.8692C24.9767 23.7763 24.8168 23.6403 24.695 23.4727C24.5732 23.305 24.4929 23.1106 24.4608 22.9054C24.385 22.5949 24.3955 22.2694 24.4911 21.9645C24.5868 21.6596 24.7639 21.387 25.0032 21.1766C25.9609 20.3333 27.1581 20.5393 28.4164 20.7609C28.8246 20.8332 29.2089 20.9007 29.5872 20.9296C30.4488 21.0718 31.3326 20.9705 32.1403 20.637C32.948 20.3035 33.6478 19.7508 34.1617 19.0405C34.2988 18.8707 34.4463 18.7098 34.6035 18.5586C34.7027 18.4685 34.7834 18.3596 34.8409 18.2382C34.8983 18.1167 34.9315 17.985 34.9384 17.8506C34.9452 17.7163 34.9258 17.5819 34.881 17.4551C34.8363 17.3283 34.7672 17.2116 34.6777 17.1117C34.5881 17.0118 34.4799 16.9306 34.3592 16.8728C34.2385 16.815 34.1077 16.7816 33.9741 16.7747C33.8406 16.7678 33.7071 16.7874 33.5811 16.8324C33.4551 16.8774 33.3391 16.9469 33.2399 17.037C33.0121 17.2542 32.7989 17.4865 32.6017 17.7322C32.2936 18.1951 31.8539 18.5538 31.34 18.7614C30.8262 18.969 30.262 19.0159 29.7213 18.896C29.4471 18.8719 29.1119 18.814 28.7635 18.7514C27.9062 18.4805 26.9971 18.4189 26.1115 18.5719C25.2259 18.7248 24.3892 19.0878 23.6707 19.6309C23.052 20.1808 22.6273 20.9179 22.4602 21.7314C22.2931 22.5449 22.3927 23.391 22.7441 24.1427C22.7272 24.2485 22.7272 24.3562 22.7441 24.462C22.8963 25.196 22.852 25.9576 22.6155 26.6687C22.3791 27.3798 21.959 28.0148 21.3984 28.5088ZM24.8116 25.8583C26.1285 26.2065 27.6921 26.4607 27.9698 26.5053C28.2476 26.5498 29.8279 27.051 29.7357 28.2775C29.7021 28.7594 29.6638 29.1039 29.6351 29.4027C29.457 30.2366 29.5459 31.1058 29.8889 31.8857C30.2945 32.6572 30.9626 33.256 31.7709 33.5724C31.485 33.9595 31.2779 34.3996 31.1615 34.8675L30.7389 34.8193C30.1166 34.8233 29.5065 34.6454 28.9826 34.3073C28.2727 33.7664 28.22 33.3435 28.22 30.999C28.2287 30.4535 28.0842 29.9167 27.8031 29.4502C27.5221 28.9836 27.1159 28.6064 26.6313 28.3618C25.9298 28.0052 25.1569 27.8136 24.371 27.8016C24.6158 27.1833 24.764 26.5306 24.8104 25.8667L24.8116 25.8583Z" fill="#427645"/>
</svg>
