<svg width="65" height="64" viewBox="0 0 65 64" fill="none" xmlns="http://www.w3.org/2000/svg">
<circle cx="32.6665" cy="32" r="31.25" stroke="#E63B39" stroke-width="1.5"/>
<path d="M18.4457 20.259C20.0841 18.6029 22.3032 17.6729 24.6166 17.6729C26.93 17.6729 29.1491 18.6029 30.7874 20.259L32.522 22.0179L34.2565 20.259C35.5501 18.9247 37.2284 18.0417 39.0491 17.7378C40.8699 17.4338 42.7387 17.7245 44.3859 18.5679C46.033 19.4113 47.3732 20.7637 48.2129 22.4299C49.0525 24.0961 49.3482 25.9897 49.0571 27.8374C49.0382 27.9665 48.9944 28.0905 48.9282 28.2023C48.862 28.3142 48.7748 28.4118 48.6714 28.4894C48.568 28.5671 48.4506 28.6234 48.3258 28.655C48.201 28.6867 48.0712 28.6931 47.944 28.6739C47.8167 28.6547 47.6944 28.6103 47.5841 28.5432C47.4738 28.476 47.3776 28.3875 47.301 28.2827C47.2244 28.1779 47.1689 28.0588 47.1377 27.9323C47.1065 27.8057 47.1002 27.6742 47.1191 27.5451C47.3334 26.1159 47.097 24.6545 46.4437 23.3696C45.7903 22.0846 44.7534 21.0418 43.4809 20.3899C42.2084 19.738 40.7654 19.5103 39.3577 19.7393C37.95 19.9684 36.6497 20.6425 35.6422 21.6654L33.2112 24.1219C33.0251 24.3022 32.7776 24.4028 32.5202 24.4028C32.2628 24.4028 32.0153 24.3022 31.8291 24.1219L29.4066 21.6654C28.3264 20.5655 26.9103 19.8694 25.3897 19.691C23.869 19.5126 22.3336 19.8624 21.0343 20.6832C19.735 21.504 18.7486 22.7473 18.2362 24.2101C17.7237 25.6728 17.7156 27.2685 18.2132 28.7365C18.296 28.9866 18.2779 29.2597 18.1629 29.4963C18.0478 29.7328 17.8451 29.9136 17.599 29.9992C17.4981 30.0361 17.3915 30.0548 17.2841 30.0545C17.0787 30.0567 16.8779 29.9928 16.7107 29.8718C16.5435 29.7508 16.4185 29.5791 16.3539 29.3814C15.8232 27.815 15.738 26.1288 16.1079 24.5156C16.4779 22.9024 17.288 21.4273 18.4457 20.259ZM17.8038 45.156C17.8038 45.4492 17.6889 45.7303 17.4845 45.9376C17.28 46.145 17.0027 46.2614 16.7136 46.2614H15.8439C14.7267 46.3137 13.6265 45.9689 12.7331 45.2866C11.8397 44.6042 11.2092 43.6271 10.9503 42.5238C10.922 42.4252 10.9073 42.3231 10.9067 42.2204V19.9446C10.9067 16.8224 13.8489 15.3669 15.8403 15.3669H15.982C16.2711 15.3669 16.5484 15.4833 16.7528 15.6906C16.9573 15.8979 17.0721 16.1791 17.0721 16.4723C17.0721 16.7655 16.9573 17.0467 16.7528 17.254C16.5484 17.4613 16.2711 17.5777 15.982 17.5777H15.8403C15.1329 17.5777 13.0822 18.1624 13.0822 19.9495V42.0583C13.2374 42.668 13.5994 43.2027 14.1046 43.5688C14.6098 43.9349 15.226 44.1089 15.8451 44.0604H16.7148C17.0021 44.0607 17.2776 44.1759 17.4815 44.3811C17.6854 44.5862 17.8012 44.8647 17.8038 45.156ZM54.4267 19.9446V42.2106C54.4262 42.3133 54.4115 42.4154 54.3831 42.514C54.189 43.587 53.6229 44.5543 52.787 45.2411C51.9511 45.9278 50.9005 46.2889 49.8251 46.259H48.6235C48.3344 46.259 48.0571 46.1425 47.8527 45.9352C47.6482 45.7279 47.5334 45.4467 47.5334 45.1535C47.5334 44.8603 47.6482 44.5792 47.8527 44.3719C48.0571 44.1645 48.3344 44.0481 48.6235 44.0481H49.8251C50.7275 44.0481 51.7074 43.8024 52.2476 42.046V19.9372C52.2333 19.2986 51.9707 18.6916 51.5169 18.2484C51.0631 17.8053 50.455 17.562 49.8251 17.5716H49.3515C49.0624 17.5716 48.7851 17.4551 48.5806 17.2478C48.3762 17.0405 48.2613 16.7593 48.2613 16.4662C48.2613 16.173 48.3762 15.8918 48.5806 15.6845C48.7851 15.4772 49.0624 15.3607 49.3515 15.3607H49.8251C50.4253 15.3508 51.0214 15.462 51.5788 15.6878C52.1362 15.9136 52.6438 16.2496 53.072 16.6761C53.5002 17.1026 53.8405 17.6113 54.073 18.1724C54.3056 18.7335 54.4259 19.3359 54.4267 19.9446ZM43.5858 35.1542C43.7687 35.3412 43.8714 35.594 43.8714 35.8574C43.8714 36.1208 43.7687 36.3736 43.5858 36.5606L33.2136 47.0733C33.1234 47.1663 33.0159 47.2402 32.8972 47.2907C32.7786 47.3411 32.6512 47.3671 32.5226 47.3671C32.3939 47.3671 32.2666 47.3411 32.1479 47.2907C32.0293 47.2402 31.9217 47.1663 31.8316 47.0733L22.1934 37.3049C22.0185 37.1166 21.9228 36.8666 21.9266 36.6079C21.9304 36.3492 22.0335 36.1022 22.2139 35.9193C22.3943 35.7363 22.6379 35.6319 22.893 35.628C23.1481 35.6241 23.3946 35.7212 23.5803 35.8985L32.522 44.9656L42.1989 35.1542C42.3833 34.9687 42.6326 34.8646 42.8923 34.8646C43.1521 34.8646 43.4014 34.9687 43.5858 35.1542ZM47.176 32.2801H37.7281L34.2032 38.457C34.1077 38.6244 33.9704 38.7634 33.8053 38.8602C33.6401 38.957 33.4528 39.0081 33.2621 39.0085H33.1749C32.9694 38.9913 32.7729 38.9154 32.6082 38.7895C32.4435 38.6636 32.3175 38.493 32.2446 38.2973L29.128 29.8592L27.7738 33.0748C27.6903 33.274 27.551 33.4439 27.3731 33.5636C27.1953 33.6832 26.9867 33.7473 26.7733 33.7479H18.1623C17.8732 33.7479 17.5959 33.6314 17.3914 33.4241C17.187 33.2168 17.0721 32.9356 17.0721 32.6424C17.0721 32.3492 17.187 32.0681 17.3914 31.8607C17.5959 31.6534 17.8732 31.537 18.1623 31.537H26.0659L28.1868 26.4409C28.273 26.2395 28.4164 26.0686 28.5987 25.9501C28.781 25.8317 28.994 25.7709 29.2105 25.7757C29.427 25.7804 29.6371 25.8504 29.8142 25.9768C29.9913 26.1031 30.1273 26.2801 30.2048 26.4851L33.468 35.3102L36.1498 30.6096C36.2458 30.4415 36.3837 30.302 36.5498 30.2052C36.7159 30.1084 36.9042 30.0577 37.0958 30.0581H47.1748C47.4639 30.0581 47.7412 30.1746 47.9457 30.3819C48.1501 30.5892 48.265 30.8704 48.265 31.1636C48.265 31.4568 48.1501 31.7379 47.9457 31.9452C47.7412 32.1526 47.4639 32.269 47.1748 32.269L47.176 32.2801Z" fill="#E63B39"/>
</svg>
