<svg width="65" height="64" viewBox="0 0 65 64" fill="none" xmlns="http://www.w3.org/2000/svg">
<circle cx="32.3335" cy="32" r="31.25" stroke="#1163C0" stroke-width="1.5"/>
<path d="M38.4629 26.3248L38.6019 26.3655L38.6426 26.2267C38.7215 25.9687 38.8986 25.7519 39.1359 25.6229C39.3731 25.4938 39.6515 25.4629 39.9113 25.5367C40.1711 25.6105 40.3916 25.7832 40.5253 26.0176C40.6591 26.252 40.6954 26.5294 40.6266 26.7903L40.4265 27.5082L42.2774 30.8358L42.9962 31.0404C43.1262 31.0783 43.2474 31.1415 43.3529 31.2262C43.4584 31.3109 43.5462 31.4156 43.6112 31.5342C43.6762 31.6528 43.7172 31.7831 43.7318 31.9175C43.7465 32.0519 43.7344 32.1879 43.6964 32.3177C43.6585 32.4475 43.5952 32.5685 43.5104 32.6739C43.4256 32.7793 43.3208 32.867 43.202 32.9319C43.0833 32.9969 42.9529 33.0378 42.8183 33.0524C42.6837 33.067 42.5475 33.055 42.4176 33.0171L42.2786 32.9764L42.2379 33.1152C42.1774 33.3307 42.0479 33.5205 41.8692 33.6556C41.6905 33.7906 41.4724 33.8635 41.2483 33.863C41.1511 33.8617 41.0545 33.8481 40.9608 33.8224C40.8302 33.7857 40.7081 33.7236 40.6018 33.6395C40.4954 33.5554 40.4067 33.4511 40.341 33.3326C40.2752 33.2141 40.2337 33.0837 40.2188 32.949C40.2038 32.8144 40.2158 32.6781 40.254 32.548L40.4636 31.8301L38.6175 28.5061L37.8987 28.3015C37.7684 28.2642 37.6468 28.2016 37.5407 28.1173C37.4347 28.0331 37.3463 27.9288 37.2806 27.8104C37.2149 27.692 37.1732 27.5619 37.1579 27.4274C37.1426 27.2929 37.1539 27.1567 37.1913 27.0266C37.2286 26.8965 37.2913 26.775 37.3757 26.6691C37.46 26.5632 37.5645 26.4749 37.683 26.4093C37.8015 26.3437 37.9318 26.302 38.0665 26.2867C38.2011 26.2714 38.3375 26.2827 38.4677 26.32L38.4629 26.3248ZM35.6081 27.4974L35.5051 27.6003L35.6081 27.7032C35.7054 27.7987 35.7829 27.9125 35.836 28.038C35.8891 28.1635 35.9167 28.2983 35.9173 28.4345C35.918 28.5708 35.8916 28.7058 35.8396 28.8318C35.7877 28.9578 35.7113 29.0723 35.6149 29.1686C35.5184 29.2649 35.4038 29.3412 35.2776 29.3931C35.1515 29.4449 35.0163 29.4713 34.8799 29.4707C34.7435 29.4701 34.6085 29.4424 34.4829 29.3894C34.3572 29.3364 34.2433 29.2591 34.1477 29.1618L33.635 28.6497H29.8013L29.2886 29.1618C29.0929 29.3444 28.8338 29.4438 28.5661 29.4391C28.2983 29.4343 28.0429 29.3257 27.8539 29.1363C27.6648 28.9469 27.5569 28.6914 27.5531 28.424C27.5492 28.1565 27.6496 27.8981 27.833 27.7032L27.9361 27.6003L27.8282 27.4974C27.6454 27.302 27.5459 27.0432 27.5506 26.7758C27.5554 26.5084 27.6641 26.2533 27.8538 26.0645C28.0435 25.8756 28.2992 25.7679 28.567 25.764C28.8347 25.7601 29.0935 25.8604 29.2886 26.0436L29.8013 26.5558H33.6146L34.1274 26.0436C34.3224 25.8604 34.5812 25.7601 34.849 25.764C35.1167 25.7679 35.3725 25.8756 35.5622 26.0645C35.7518 26.2533 35.8606 26.5084 35.8653 26.7758C35.8701 27.0432 35.7705 27.302 35.5877 27.4974H35.6081ZM24.7829 26.2231L24.8236 26.3667L24.9626 26.326C25.0929 26.2887 25.2292 26.2774 25.3639 26.2927C25.4985 26.308 25.6288 26.3496 25.7473 26.4153C25.8659 26.4809 25.9703 26.5692 26.0547 26.6751C26.1391 26.781 26.2017 26.9025 26.2391 27.0326C26.2764 27.1627 26.2878 27.2989 26.2724 27.4334C26.2571 27.5678 26.2154 27.698 26.1497 27.8164C26.084 27.9348 25.9956 28.0391 25.8896 28.1233C25.7835 28.2076 25.6619 28.2702 25.5316 28.3075L24.8128 28.5121L22.9619 31.8397L23.1716 32.5576C23.2496 32.8169 23.2218 33.0965 23.094 33.3353C22.9663 33.5741 22.7491 33.7526 22.4899 33.8319C22.3963 33.858 22.2996 33.8717 22.2024 33.8726C21.9783 33.8731 21.7602 33.8002 21.5815 33.6651C21.4028 33.5301 21.2733 33.3403 21.2128 33.1248L21.1721 32.986L21.0331 33.0267C20.77 33.106 20.4862 33.0777 20.244 32.948C20.0018 32.8183 19.8211 32.5978 19.7417 32.3351C19.6622 32.0723 19.6906 31.7888 19.8204 31.5469C19.9503 31.305 20.171 31.1245 20.4341 31.0452L21.1529 30.8406L22.9931 27.513L22.7834 26.7951C22.7461 26.665 22.7347 26.5288 22.75 26.3943C22.7654 26.2598 22.8071 26.1297 22.8728 26.0113C22.9385 25.8929 23.0268 25.7886 23.1329 25.7043C23.2389 25.6201 23.3606 25.5575 23.4908 25.5202C23.7539 25.4448 24.0362 25.4769 24.2756 25.6094C24.515 25.7419 24.6919 25.9639 24.7673 26.2267L24.7829 26.2231ZM25.413 23.5907L26.151 22.8537L25.413 22.1214C25.3157 22.0259 25.2382 21.9122 25.1852 21.7866C25.1321 21.6611 25.1044 21.5264 25.1038 21.3901C25.1032 21.2539 25.1296 21.1188 25.1815 20.9928C25.2334 20.8668 25.3098 20.7524 25.4063 20.656C25.5027 20.5597 25.6173 20.4834 25.7435 20.4315C25.8696 20.3797 26.0048 20.3533 26.1413 20.3539C26.2777 20.3546 26.4126 20.3822 26.5383 20.4352C26.6639 20.4882 26.7779 20.5656 26.8734 20.6628L28.0319 21.8246H35.3948L36.5533 20.6628C36.6489 20.5656 36.7628 20.4882 36.8885 20.4352C37.0141 20.3822 37.1491 20.3546 37.2855 20.3539C37.4219 20.3533 37.5571 20.3797 37.6832 20.4315C37.8094 20.4834 37.924 20.5597 38.0205 20.656C38.1169 20.7524 38.1933 20.8668 38.2452 20.9928C38.2972 21.1188 38.3236 21.2539 38.3229 21.3901C38.3223 21.5264 38.2946 21.6611 38.2416 21.7866C38.1885 21.9122 38.111 22.0259 38.0137 22.1214L37.2757 22.8537L38.0137 23.5907C38.1965 23.7862 38.2961 24.045 38.2913 24.3124C38.2865 24.5798 38.1778 24.8349 37.9881 25.0237C37.7985 25.2125 37.5427 25.3203 37.275 25.3242C37.0072 25.328 36.7484 25.2278 36.5533 25.0445L35.3948 23.8827H28.0319L26.8734 25.0445C26.6783 25.2278 26.4196 25.328 26.1518 25.3242C25.884 25.3203 25.6283 25.2125 25.4386 25.0237C25.2489 24.8349 25.1402 24.5798 25.1354 24.3124C25.1307 24.045 25.2302 23.7862 25.413 23.5907ZM31.7122 20.0992C32.5618 20.099 33.3922 19.8471 34.0984 19.3754C34.8047 18.9037 35.355 18.2334 35.6797 17.4492C36.0044 16.6651 36.0891 15.8024 35.9228 14.9703C35.7566 14.1381 35.347 13.3739 34.7458 12.7743C34.1446 12.1747 33.3789 11.7667 32.5455 11.6018C31.7121 11.4369 30.8484 11.5226 30.0638 11.848C29.2792 12.1735 28.6088 12.724 28.1375 13.4301C27.6662 14.1361 27.4152 14.9659 27.4161 15.8144C27.4187 16.9506 27.8724 18.0394 28.6779 18.8418C29.4833 19.6443 30.5746 20.0948 31.7122 20.0944V20.0992ZM31.7122 13.5721C32.1543 13.5711 32.5867 13.7012 32.9548 13.9458C33.3228 14.1905 33.61 14.5387 33.7798 14.9463C33.9496 15.354 33.9946 15.8029 33.9089 16.2361C33.8232 16.6692 33.6108 17.0673 33.2985 17.3799C32.9863 17.6924 32.5882 17.9055 32.1546 17.992C31.7211 18.0784 31.2716 18.0345 30.8631 17.8658C30.4545 17.697 30.1053 17.411 29.8596 17.0439C29.6138 16.6768 29.4827 16.2452 29.4827 15.8036C29.482 15.5106 29.5392 15.2203 29.6509 14.9493C29.7626 14.6783 29.9267 14.432 30.1337 14.2243C30.3407 14.0166 30.5867 13.8517 30.8575 13.739C31.1283 13.6263 31.4188 13.5679 31.7122 13.5673V13.5721ZM30.4111 45.022V50.0546L31.0101 50.7965C31.1075 50.8997 31.1824 51.0219 31.2302 51.1554C31.2781 51.2889 31.2978 51.4309 31.2882 51.5723C31.2786 51.7138 31.2399 51.8518 31.1744 51.9776C31.109 52.1034 31.0182 52.2144 30.9078 52.3036C30.7975 52.3928 30.6698 52.4582 30.533 52.4959C30.3961 52.5335 30.2529 52.5426 30.1124 52.5224C29.9719 52.5022 29.837 52.4533 29.7163 52.3787C29.5956 52.3041 29.4916 52.2054 29.4108 52.0888L29.3797 52.0529L29.3485 52.0888C29.1743 52.294 28.9267 52.423 28.6585 52.4483C28.3903 52.4735 28.1229 52.393 27.9134 52.2239C27.7039 52.0548 27.5689 51.8106 27.5373 51.5434C27.5057 51.2762 27.58 51.0073 27.7444 50.7941L28.3434 50.0522V45.022L27.7444 44.2849C27.58 44.0717 27.5057 43.8028 27.5373 43.5356C27.5689 43.2685 27.7039 43.0242 27.9134 42.8551C28.1229 42.686 28.3903 42.6055 28.6585 42.6307C28.9267 42.656 29.1743 42.785 29.3485 42.9903L29.3797 43.0262L29.4108 42.9903C29.4947 42.8814 29.5995 42.7905 29.7191 42.7227C29.8387 42.6549 29.9706 42.6117 30.1072 42.5956C30.2437 42.5795 30.3821 42.5909 30.5142 42.6289C30.6463 42.667 30.7695 42.7311 30.8764 42.8174C30.9834 42.9037 31.0719 43.0105 31.137 43.1316C31.202 43.2526 31.2421 43.3853 31.255 43.522C31.2679 43.6588 31.2534 43.7967 31.2121 43.9277C31.1709 44.0587 31.1038 44.1802 31.0149 44.2849L30.4111 45.022ZM25.8587 47.725C25.8587 47.8595 25.8322 47.9927 25.7806 48.1169C25.7291 48.2412 25.6536 48.3541 25.5583 48.4492C25.4631 48.5443 25.3501 48.6198 25.2256 48.6712C25.1012 48.7227 24.9679 48.7492 24.8332 48.7492H19.2876C18.3344 48.7492 17.4203 48.371 16.7463 47.6978C16.0723 47.0246 15.6936 46.1116 15.6936 45.1596V20.3804C15.7018 19.4338 16.0841 18.5287 16.7572 17.8622C17.4303 17.1958 18.3398 16.8219 19.2876 16.8219H23.7742C23.9117 16.8172 24.0488 16.8402 24.1772 16.8895C24.3057 16.9389 24.4229 17.0135 24.5219 17.109C24.6208 17.2045 24.6995 17.319 24.7533 17.4455C24.807 17.572 24.8347 17.7081 24.8347 17.8455C24.8347 17.983 24.807 18.119 24.7533 18.2456C24.6995 18.3721 24.6208 18.4865 24.5219 18.5821C24.4229 18.6776 24.3057 18.7522 24.1772 18.8015C24.0488 18.8509 23.9117 18.8739 23.7742 18.8692H19.2876C18.8906 18.8689 18.5097 19.0255 18.2279 19.3048C17.9462 19.5842 17.7867 19.9636 17.7841 20.3601V45.1955C17.7841 45.5934 17.9424 45.9751 18.2241 46.2565C18.5059 46.5379 18.888 46.6959 19.2864 46.6959H24.832C24.9675 46.6953 25.1017 46.7215 25.227 46.773C25.3523 46.8245 25.4662 46.9002 25.5619 46.9959C25.6577 47.0916 25.7336 47.2053 25.7852 47.3304C25.8367 47.4556 25.8629 47.5897 25.8623 47.725H25.8587ZM38.0065 34.563C37.8128 34.7564 37.5502 34.8651 37.2763 34.8651C37.0025 34.8651 36.7398 34.7564 36.5461 34.563L35.3877 33.3856H28.0319L26.8734 34.563C26.779 34.6639 26.6653 34.7448 26.539 34.801C26.4126 34.8571 26.2763 34.8873 26.1381 34.8898C25.9998 34.8922 25.8625 34.8669 25.7342 34.8153C25.606 34.7637 25.4895 34.6869 25.3915 34.5894C25.2936 34.4919 25.2163 34.3757 25.1642 34.2478C25.1121 34.1199 25.0863 33.9828 25.0883 33.8447C25.0903 33.7067 25.1201 33.5704 25.1759 33.444C25.2317 33.3177 25.3123 33.2038 25.413 33.1092L26.151 32.3721L25.413 31.6399C25.2223 31.4458 25.1161 31.1844 25.1173 30.9125C25.1186 30.6407 25.2273 30.3803 25.4198 30.188C25.6123 29.9957 25.873 29.8872 26.1452 29.8859C26.4174 29.8846 26.6791 29.9908 26.8734 30.1813L28.0319 31.3431H35.3948L36.5533 30.1813C36.7508 30.0173 37.0024 29.9326 37.259 29.9439C37.5156 29.9552 37.7588 30.0616 37.9411 30.2423C38.1234 30.423 38.2317 30.6651 38.2449 30.9213C38.2581 31.1775 38.1753 31.4294 38.0125 31.6279L37.2745 32.3602L38.0125 33.0973C38.1085 33.1925 38.1847 33.3057 38.2367 33.4305C38.2887 33.5552 38.3155 33.689 38.3155 33.8241C38.3155 33.9593 38.2887 34.0931 38.2367 34.2178C38.1847 34.3426 38.1085 34.4558 38.0125 34.551L38.0065 34.563ZM47.6996 20.3804V45.1955C47.6996 46.1475 47.3209 47.0605 46.6469 47.7337C45.9729 48.4069 45.0588 48.7851 44.1056 48.7851H38.5911C38.4536 48.7898 38.3165 48.7668 38.1881 48.7175C38.0596 48.6681 37.9424 48.5935 37.8435 48.498C37.7445 48.4025 37.6658 48.288 37.612 48.1615C37.5583 48.035 37.5306 47.8989 37.5306 47.7615C37.5306 47.624 37.5583 47.488 37.612 47.3614C37.6658 47.2349 37.7445 47.1205 37.8435 47.0249C37.9424 46.9294 38.0596 46.8548 38.1881 46.8055C38.3165 46.7561 38.4536 46.7331 38.5911 46.7378H44.1403C44.5387 46.7378 44.9209 46.5797 45.2026 46.2983C45.4843 46.017 45.6426 45.6353 45.6426 45.2374V20.3804C45.6423 19.9827 45.4839 19.6013 45.2022 19.3202C44.9205 19.0391 44.5385 18.8811 44.1403 18.8811H39.6526C39.515 18.8858 39.378 18.8628 39.2495 18.8135C39.121 18.7642 39.0038 18.6895 38.9049 18.594C38.8059 18.4985 38.7272 18.3841 38.6735 18.2575C38.6197 18.131 38.592 17.995 38.592 17.8575C38.592 17.7201 38.6197 17.584 38.6735 17.4575C38.7272 17.3309 38.8059 17.2165 38.9049 17.121C39.0038 17.0255 39.121 16.9508 39.2495 16.9015C39.378 16.8522 39.515 16.8292 39.6526 16.8339H44.1403C45.08 16.8429 45.9789 17.2192 46.6442 17.8821C47.3095 18.545 47.6884 19.4418 47.6996 20.3804ZM33.0144 39.2858V37.2301L32.6406 36.9788C32.5282 36.9036 32.4318 36.8069 32.3567 36.6944C32.2817 36.5819 32.2296 36.4558 32.2034 36.3232C32.1772 36.1905 32.1774 36.0541 32.2041 35.9216C32.2307 35.789 32.2831 35.663 32.3585 35.5508C32.4339 35.4385 32.5306 35.3421 32.6433 35.2672C32.7559 35.1923 32.8822 35.1403 33.015 35.1141C33.1478 35.0879 33.2844 35.0881 33.4171 35.1147C33.5498 35.1413 33.6759 35.1937 33.7883 35.269L34.0447 35.4425L34.3011 35.269C34.4135 35.1937 34.5396 35.1413 34.6723 35.1147C34.805 35.0881 34.9416 35.0879 35.0744 35.1141C35.2072 35.1403 35.3335 35.1923 35.4461 35.2672C35.5588 35.3421 35.6555 35.4385 35.7309 35.5508C35.8062 35.663 35.8587 35.789 35.8853 35.9216C35.9119 36.0541 35.9121 36.1905 35.886 36.3232C35.8598 36.4558 35.8077 36.5819 35.7326 36.6944C35.6576 36.8069 35.5612 36.9036 35.4488 36.9788L35.075 37.2301V39.2774L35.4488 39.5287C35.6758 39.6807 35.833 39.9165 35.886 40.1843C35.9389 40.4522 35.8831 40.73 35.7309 40.9567C35.5787 41.1835 35.3426 41.3405 35.0744 41.3934C34.8063 41.4462 34.5281 41.3905 34.3011 41.2385L34.0447 41.065L33.7883 41.2385C33.6757 41.3139 33.5493 41.3663 33.4163 41.3929C33.2834 41.4194 33.1465 41.4196 33.0135 41.3933C32.8805 41.367 32.754 41.3148 32.6412 41.2397C32.5284 41.1646 32.4315 41.068 32.3561 40.9555C32.2807 40.843 32.2282 40.7168 32.2016 40.584C32.175 40.4512 32.1748 40.3145 32.2011 40.1817C32.2275 40.0489 32.2797 39.9225 32.3549 39.8098C32.4301 39.6972 32.5268 39.6004 32.6394 39.5251L33.0144 39.2858ZM35.0642 45.0292V50.0546L35.6632 50.7965C35.7615 50.8995 35.8374 51.0217 35.886 51.1555C35.9347 51.2892 35.9551 51.4316 35.9459 51.5736C35.9367 51.7156 35.8982 51.8542 35.8327 51.9806C35.7673 52.107 35.6763 52.2184 35.5656 52.308C35.4548 52.3975 35.3267 52.4632 35.1893 52.5008C35.0519 52.5384 34.9082 52.5472 34.7672 52.5266C34.6263 52.506 34.4911 52.4565 34.3702 52.3811C34.2494 52.3058 34.1455 52.2062 34.0651 52.0888L34.0339 52.0529L34.0028 52.0888C33.9208 52.2023 33.8164 52.2979 33.6962 52.3698C33.576 52.4417 33.4423 52.4884 33.3034 52.507C33.1645 52.5256 33.0233 52.5157 32.8883 52.478C32.7534 52.4403 32.6275 52.3755 32.5185 52.2876C32.4094 52.1996 32.3194 52.0904 32.254 51.9666C32.1886 51.8428 32.1492 51.707 32.1381 51.5675C32.127 51.428 32.1445 51.2876 32.1895 51.1551C32.2345 51.0225 32.306 50.9005 32.3998 50.7965L32.9988 50.0546V45.022L32.3998 44.2849C32.2355 44.0717 32.1612 43.8028 32.1928 43.5356C32.2243 43.2685 32.3593 43.0242 32.5688 42.8551C32.7783 42.686 33.0458 42.6055 33.314 42.6307C33.5821 42.656 33.8298 42.785 34.004 42.9903L34.0351 43.0262L34.0663 42.9903C34.1501 42.8814 34.255 42.7905 34.3745 42.7227C34.4941 42.6549 34.6261 42.6117 34.7626 42.5956C34.8992 42.5795 35.0376 42.5909 35.1697 42.6289C35.3018 42.667 35.4249 42.7311 35.5319 42.8174C35.6388 42.9037 35.7274 43.0105 35.7924 43.1316C35.8574 43.2526 35.8976 43.3853 35.9105 43.522C35.9234 43.6588 35.9088 43.7967 35.8676 43.9277C35.8263 44.0587 35.7593 44.1802 35.6704 44.2849L35.0642 45.0292ZM28.3554 39.2858V37.2301L27.9816 36.9788C27.7558 36.8233 27.6012 36.5846 27.5516 36.3152C27.5021 36.0459 27.5617 35.7679 27.7174 35.5424C27.8731 35.3169 28.1121 35.1624 28.3818 35.113C28.6515 35.0635 28.9299 35.123 29.1556 35.2785L29.4048 35.4568L29.6612 35.2833C29.8882 35.1313 30.1664 35.0756 30.4345 35.1285C30.7027 35.1813 30.9388 35.3384 31.091 35.5651C31.2432 35.7919 31.299 36.0697 31.2461 36.3375C31.1932 36.6053 31.0359 36.8412 30.8089 36.9932L30.4351 37.2445V39.2858L30.8089 39.537C30.9258 39.61 31.0268 39.7057 31.1059 39.8185C31.185 39.9313 31.2405 40.0588 31.2692 40.1935C31.2979 40.3282 31.2991 40.4673 31.2728 40.6024C31.2465 40.7376 31.1932 40.8661 31.1161 40.9802C31.039 41.0944 30.9396 41.1919 30.824 41.2668C30.7084 41.3418 30.5788 41.3928 30.443 41.4166C30.3072 41.4405 30.168 41.4368 30.0337 41.4058C29.8994 41.3748 29.7727 41.3171 29.6612 41.2361L29.4048 41.0626L29.1484 41.2361C28.9214 41.3881 28.6432 41.4438 28.3751 41.391C28.1069 41.3381 27.8708 41.1811 27.7186 40.9543C27.5664 40.7276 27.5106 40.4498 27.5636 40.1819C27.6165 39.9141 27.7737 39.6783 28.0007 39.5263L28.3554 39.2858Z" fill="#1163C0"/>
</svg>
