<svg width="64" height="64" viewBox="0 0 64 64" fill="none" xmlns="http://www.w3.org/2000/svg">
<circle cx="32" cy="32" r="31.25" stroke="#318FCE" stroke-width="1.5"/>
<path d="M54.1007 26.8293H51.584C50.6199 25.4535 49.2802 24.3789 47.7219 23.7313C46.1637 23.0838 44.4514 22.8902 42.7861 23.1733H21.3009C19.6312 22.882 17.9123 23.0704 16.3471 23.7163C14.7819 24.3622 13.4358 25.4386 12.4677 26.8184H9.96189C9.68417 26.8565 9.42974 26.9929 9.24557 27.2025C9.06141 27.4121 8.95996 27.6806 8.95996 27.9586C8.95996 28.2366 9.06141 28.5051 9.24557 28.7147C9.42974 28.9243 9.68417 29.0607 9.96189 29.0988H11.3383C10.8873 30.3913 10.7415 31.7691 10.9121 33.1262C11.0828 34.4833 11.5654 35.7835 12.3227 36.9265C13.08 38.0696 14.0919 39.0251 15.2804 39.7194C16.4689 40.4137 17.8022 40.8283 19.1778 40.9312C20.5533 41.0341 21.9343 40.8227 23.2144 40.3131C24.4946 39.8035 25.6396 39.0095 26.5614 37.992C27.4833 36.9746 28.1572 35.761 28.5314 34.4447C28.9056 33.1283 28.9701 31.7444 28.7198 30.3995C29.1203 29.9047 29.6278 29.5055 30.2047 29.2311C30.7816 28.9567 31.4134 28.8143 32.0532 28.8143C32.6931 28.8143 33.3248 28.9567 33.9018 29.2311C34.4787 29.5055 34.9861 29.9047 35.3866 30.3995C35.2809 30.9189 35.2227 31.4467 35.2126 31.9765C35.2069 33.2768 35.4875 34.5626 36.0348 35.7443C36.5821 36.926 37.3829 37.975 38.3814 38.8181C39.3799 39.6612 40.5519 40.2782 41.8157 40.6259C43.0795 40.9736 44.4046 41.0436 45.6985 40.8311C46.9925 40.6187 48.224 40.1288 49.3073 39.3957C50.3905 38.6627 51.2993 37.704 51.9703 36.5868C52.6412 35.4695 53.0582 34.2205 53.192 32.927C53.3258 31.6335 53.1732 30.3266 52.745 29.0976H54.0983C54.3643 29.0479 54.6043 28.9077 54.7771 28.7012C54.9498 28.4946 55.0443 28.2347 55.0443 27.9664C55.0443 27.6981 54.9498 27.4383 54.7771 27.2317C54.6043 27.0252 54.3643 26.885 54.0983 26.8353L54.1007 26.8293ZM19.8368 38.6537C18.5055 38.6537 17.204 38.2623 16.0971 37.529C14.9901 36.7957 14.1273 35.7534 13.6178 34.534C13.1084 33.3145 12.9751 31.9727 13.2348 30.6782C13.4945 29.3836 14.1356 28.1945 15.077 27.2612C16.0184 26.3279 17.2178 25.6923 18.5236 25.4348C19.8293 25.1773 21.1828 25.3094 22.4128 25.8146C23.6427 26.3197 24.694 27.175 25.4337 28.2725C26.1733 29.3699 26.5681 30.6602 26.5681 31.9801C26.5684 32.8567 26.3946 33.7248 26.0564 34.5347C25.7183 35.3447 25.2225 36.0806 24.5974 36.7006C23.9723 37.3205 23.2302 37.8123 22.4133 38.1478C21.5965 38.4834 20.721 38.6561 19.8368 38.6561V38.6537ZM32.0325 26.565C30.5236 26.566 29.0615 27.0849 27.8947 28.0334C27.4113 27.064 26.7539 26.1898 25.9547 25.4538H38.1042C37.3081 26.1884 36.6522 27.0594 36.168 28.025C35.0019 27.0738 33.5401 26.5513 32.0301 26.5457L32.0325 26.565ZM44.2283 38.6561C42.897 38.6561 41.5955 38.2647 40.4886 37.5314C39.3816 36.7981 38.5188 35.7558 38.0093 34.5364C37.4999 33.3169 37.3666 31.9751 37.6263 30.6806C37.886 29.386 38.5271 28.1969 39.4685 27.2636C40.4099 26.3303 41.6093 25.6947 42.9151 25.4372C44.2208 25.1797 45.5743 25.3119 46.8043 25.817C48.0343 26.3221 49.0855 27.1774 49.8252 28.2749C50.5648 29.3724 50.9596 30.6626 50.9596 31.9825C50.9596 33.7525 50.2504 35.4499 48.9881 36.7014C47.7257 37.953 46.0135 38.6561 44.2283 38.6561Z" fill="#318FCE"/>
</svg>
