<svg width="64" height="64" viewBox="0 0 64 64" fill="none" xmlns="http://www.w3.org/2000/svg">
<circle cx="32" cy="32" r="31.25" stroke="#2C7631" stroke-width="1.5"/>
<path d="M43.1562 30.5621H41.8202C41.4898 29.3075 40.9126 28.1312 40.1226 27.1021C37.5919 23.8357 34.1709 24.7776 32.1326 25.331C31.7719 25.4264 31.4427 25.5133 31.145 25.5753C30.6363 24.2546 29.9779 21.1057 33.9533 18.8098C34.0642 18.7466 34.1614 18.6621 34.2395 18.5611C34.3176 18.4602 34.375 18.3448 34.4083 18.2216C34.4417 18.0985 34.4503 17.9699 34.4338 17.8434C34.4174 17.7168 34.376 17.5948 34.3122 17.4843C34.2484 17.3737 34.1634 17.2769 34.062 17.1994C33.9607 17.1218 33.845 17.0651 33.7216 17.0324C33.5983 16.9996 33.4697 16.9916 33.3432 17.0088C33.2168 17.0259 33.0949 17.0679 32.9848 17.1323C31.6419 17.8572 30.5169 18.9275 29.726 20.2326C29.5402 19.912 29.3262 19.6086 29.0866 19.3261C28.4239 18.5769 27.6061 17.9809 26.6898 17.5797C25.7736 17.1784 24.781 16.9815 23.781 17.0025C23.6538 17.0025 23.5278 17.0276 23.4103 17.0762C23.2928 17.1249 23.186 17.1963 23.0961 17.2862C23.0061 17.3761 22.9348 17.4829 22.8861 17.6004C22.8374 17.7179 22.8124 17.8439 22.8124 17.9711C22.7903 18.9711 22.9869 19.964 23.3884 20.8802C23.7899 21.7965 24.3867 22.614 25.137 23.2756C26.1855 24.2017 27.5295 24.7243 28.9282 24.7499C28.9635 24.9512 29.0017 25.1373 29.0485 25.3425H28.9979C26.9519 24.7842 23.5338 23.8472 21.0002 27.1135C19.7727 28.7006 19.06 30.6252 18.9576 32.6289C18.8553 34.6327 19.3682 36.6199 20.4277 38.3238H17.9686C17.7142 38.3238 17.4699 38.4238 17.2887 38.6024C17.1075 38.7809 17.0038 39.0236 17 39.278V47.0273C17 47.1545 17.0251 47.2804 17.0737 47.3979C17.1224 47.5154 17.1937 47.6222 17.2837 47.7122C17.3736 47.8021 17.4804 47.8734 17.5979 47.9221C17.7154 47.9708 17.8414 47.9958 17.9686 47.9958H43.1562C44.4405 47.9948 45.672 47.4842 46.5802 46.576C47.4883 45.6679 47.999 44.4365 48 43.1522V35.4058C47.998 34.1218 47.487 32.8909 46.579 31.983C45.6711 31.0751 44.4402 30.5641 43.1562 30.5621ZM26.4042 21.8051C25.5872 21.0864 25.0404 20.11 24.8545 19.0379C25.9271 19.2224 26.904 19.7695 27.6218 20.5875C28.1774 21.2091 28.5268 21.9875 28.6219 22.8157C27.7966 22.714 27.0224 22.3613 26.4042 21.8051ZM22.529 28.2882C24.2648 26.041 26.5044 26.6564 28.4807 27.1994C29.0282 27.3538 29.5905 27.4498 30.1583 27.4857C30.2816 27.5543 30.4203 27.5903 30.5614 27.5903C30.7025 27.5903 30.8413 27.5543 30.9646 27.4857C31.5296 27.4479 32.0892 27.352 32.6346 27.1994C34.6146 26.6612 36.8505 26.0371 38.5863 28.2882C41.3536 31.8684 40.2486 35.8361 38.3696 38.3161H22.758C20.8743 35.8399 19.7664 31.8722 22.5328 28.292L22.529 28.2882ZM46.0619 43.156C46.0609 43.9266 45.7543 44.6653 45.2094 45.2101C44.6646 45.755 43.9258 46.0616 43.1552 46.0626H42.1876V45.0931C42.1876 44.8362 42.0856 44.5898 41.9039 44.4082C41.7223 44.2266 41.4759 44.1245 41.219 44.1245C40.9622 44.1245 40.7158 44.2266 40.5342 44.4082C40.3525 44.5898 40.2505 44.8362 40.2505 45.0931V46.0616H38.3133V43.156C38.3133 42.8991 38.2113 42.6528 38.0296 42.4711C37.848 42.2895 37.6016 42.1875 37.3448 42.1875C37.0879 42.1875 36.8415 42.2895 36.6599 42.4711C36.4782 42.6528 36.3762 42.8991 36.3762 43.156V46.0626H34.439V45.0931C34.439 44.8362 34.337 44.5898 34.1554 44.4082C33.9737 44.2266 33.7274 44.1245 33.4705 44.1245C33.2136 44.1245 32.9672 44.2266 32.7856 44.4082C32.604 44.5898 32.5019 44.8362 32.5019 45.0931V46.0616H30.5648V45.0931C30.5648 44.8362 30.4627 44.5898 30.2811 44.4082C30.0994 44.2266 29.8531 44.1245 29.5962 44.1245C29.3393 44.1245 29.093 44.2266 28.9113 44.4082C28.7297 44.5898 28.6276 44.8362 28.6276 45.0931V46.0616H26.6905V43.156C26.6905 42.8991 26.5884 42.6528 26.4068 42.4711C26.2252 42.2895 25.9788 42.1875 25.7219 42.1875C25.465 42.1875 25.2187 42.2895 25.037 42.4711C24.8554 42.6528 24.7533 42.8991 24.7533 43.156V46.0626H22.8162V45.0931C22.8162 44.9659 22.7911 44.8399 22.7425 44.7224C22.6938 44.6049 22.6224 44.4981 22.5325 44.4082C22.4426 44.3183 22.3358 44.2469 22.2183 44.1983C22.1008 44.1496 21.9748 44.1245 21.8476 44.1245C21.7204 44.1245 21.5945 44.1496 21.477 44.1983C21.3595 44.2469 21.2527 44.3183 21.1627 44.4082C21.0728 44.4981 21.0015 44.6049 20.9528 44.7224C20.9041 44.8399 20.8791 44.9659 20.8791 45.0931V46.0616H18.9371V40.2494H43.1562C44.2077 40.2464 45.2291 39.8977 46.0629 39.257L46.0619 43.156ZM43.1562 38.3123H40.6952C41.7367 36.5594 42.233 34.5361 42.1208 32.5001H43.1562C43.5423 32.4931 43.9259 32.5631 44.2846 32.706C44.6433 32.8489 44.97 33.0619 45.2455 33.3324C45.521 33.603 45.7398 33.9257 45.8892 34.2818C46.0386 34.6378 46.1155 35.0201 46.1155 35.4062C46.1155 35.7924 46.0386 36.1746 45.8892 36.5307C45.7398 36.8867 45.521 37.2095 45.2455 37.48C44.97 37.7506 44.6433 37.9635 44.2846 38.1064C43.9259 38.2493 43.5423 38.3193 43.1562 38.3123Z" fill="#2C7631"/>
</svg>
