<svg width="65" height="64" viewBox="0 0 65 64" fill="none" xmlns="http://www.w3.org/2000/svg">
<circle cx="32.6667" cy="32" r="31.25" stroke="#BD66AD" stroke-width="1.5"/>
<path d="M46.429 31.7173C45.2407 30.1147 39.5879 30.0199 38.3452 30.0199C36.9555 30.0199 30.0319 30.1318 30.0319 32.363V32.8874L30.8556 44.9521C30.8568 45.7591 31.1742 46.5326 31.7381 47.1031C32.3019 47.6737 33.0664 47.9948 33.8638 47.9961H42.8304C43.6205 47.9961 44.3788 47.6813 44.9411 47.1198C45.5034 46.5582 45.8245 45.7951 45.8349 44.9958L46.6661 32.8391V32.3744C46.6603 32.1651 46.5913 31.9626 46.4684 31.7941C46.4562 31.7533 46.4328 31.7097 46.429 31.7173ZM38.3452 31.3569C42.2166 31.3569 44.5641 31.9619 45.2173 32.3621C44.5613 32.7623 42.2184 33.3673 38.3452 33.3673C34.472 33.3673 32.1264 32.7746 31.4769 32.3735C32.1301 31.9743 34.4739 31.3569 38.3452 31.3569ZM41.8014 34.5336V36.5363C40.9664 36.6312 39.9843 36.6928 38.8757 36.7089V34.7062C39.5682 34.6939 40.6487 34.654 41.8014 34.5336ZM37.5496 34.7015V36.7042C36.4481 36.683 35.3486 36.5988 34.2565 36.4519V34.4492C35.3493 34.589 36.4484 34.6732 37.5496 34.7015ZM31.4141 33.7883C31.9051 33.984 32.4126 34.1341 32.9304 34.2368V36.2395C32.4566 36.1458 31.9943 35.9998 31.5519 35.8043L31.4141 33.7883ZM44.5126 44.9521C44.5126 45.4048 44.3348 45.839 44.0185 46.1591C43.7022 46.4792 43.2731 46.659 42.8257 46.659H33.8638C33.6391 46.6576 33.4168 46.611 33.21 46.5219C33.0032 46.4329 32.8159 46.3032 32.659 46.1404C32.5021 45.9775 32.3787 45.7848 32.2959 45.5733C32.2132 45.3619 32.1727 45.1359 32.177 44.9085L31.654 37.2978C33.8411 37.8674 36.0938 38.1369 38.3518 38.0991C40.606 38.1344 42.8547 37.8649 45.0383 37.2978L44.5126 44.9521ZM45.1376 35.7957C44.4918 36.0616 43.8165 36.2473 43.1265 36.3486V34.3819C43.861 34.2699 44.5817 34.0791 45.2763 33.8129L45.1376 35.7957ZM36.3107 25.1648L36.4606 25.3175L36.5797 25.4332C36.7671 25.6228 36.9086 25.7413 36.948 25.7774C37.0974 25.8789 37.2699 25.9402 37.4493 25.9557C37.6287 25.9711 37.8089 25.9401 37.9732 25.8656C38.2066 25.7454 38.4119 25.5759 38.5752 25.3687C38.7384 25.1614 38.8559 24.9212 38.9197 24.6641C38.9341 24.5698 38.9341 24.4739 38.9197 24.3796L40.2495 23.0341C40.2946 22.989 40.3304 22.9353 40.3548 22.8761C40.3792 22.817 40.3918 22.7535 40.3918 22.6894C40.3918 22.6252 40.3792 22.5618 40.3548 22.5026C40.3304 22.4434 40.2946 22.3897 40.2495 22.3447C40.1982 22.2934 40.1356 22.2551 40.0669 22.2328C39.9982 22.2106 39.9253 22.2051 39.854 22.2167L40.2186 21.8478C40.2637 21.8027 40.2995 21.749 40.3239 21.6899C40.3483 21.6307 40.3609 21.5672 40.3609 21.5031C40.3609 21.439 40.3483 21.3755 40.3239 21.3163C40.2995 21.2571 40.2637 21.2035 40.2186 21.1584C40.1672 21.1071 40.1047 21.0688 40.036 21.0466C39.9673 21.0243 39.8943 21.0188 39.8231 21.0304L40.2176 20.6321C40.2627 20.587 40.2985 20.5334 40.3229 20.4742C40.3474 20.415 40.36 20.3515 40.36 20.2874C40.36 20.2233 40.3474 20.1598 40.3229 20.1006C40.2985 20.0415 40.2627 19.9878 40.2176 19.9427C40.1567 19.8809 40.0801 19.8373 39.9963 19.8167C39.9125 19.7962 39.8247 19.7994 39.7425 19.8261L40.0396 19.5293C40.1286 19.4372 40.1784 19.3134 40.1784 19.1846C40.1784 19.0558 40.1286 18.932 40.0396 18.8399C39.9878 18.7892 39.9252 18.7513 39.8566 18.7291C39.788 18.7069 39.7153 18.701 39.6441 18.7119L39.9487 18.4037C39.9938 18.3586 40.0296 18.305 40.054 18.2458C40.0784 18.1866 40.091 18.1231 40.091 18.059C40.091 17.9949 40.0784 17.9314 40.054 17.8722C40.0296 17.8131 39.9938 17.7594 39.9487 17.7143C39.8877 17.6527 39.811 17.6092 39.7272 17.5888C39.6434 17.5684 39.5556 17.5718 39.4736 17.5986L39.7978 17.2743C39.8868 17.1822 39.9366 17.0585 39.9366 16.9296C39.9366 16.8008 39.8868 16.6771 39.7978 16.5849C39.7533 16.5393 39.7002 16.5031 39.6417 16.4784C39.5833 16.4537 39.5205 16.4409 39.4572 16.4409C39.3938 16.4409 39.331 16.4537 39.2726 16.4784C39.2141 16.5031 39.161 16.5393 39.1165 16.5849L38.8354 16.8694C38.8468 16.7973 38.8413 16.7236 38.8194 16.654C38.7974 16.5845 38.7595 16.5212 38.7088 16.4692C38.6643 16.4236 38.6113 16.3874 38.5528 16.3627C38.4943 16.338 38.4316 16.3253 38.3682 16.3253C38.3048 16.3253 38.2421 16.338 38.1836 16.3627C38.1251 16.3874 38.0721 16.4236 38.0275 16.4692L37.723 16.7774C37.7307 16.6941 37.7164 16.6102 37.6817 16.5343C37.647 16.4583 37.593 16.393 37.5252 16.345C37.4355 16.2543 37.3138 16.2034 37.1869 16.2034C37.0601 16.2034 36.9384 16.2543 36.8486 16.345L36.5515 16.6456C36.578 16.5626 36.5814 16.4738 36.5612 16.389C36.5411 16.3041 36.4981 16.2266 36.4372 16.1649C36.3927 16.1192 36.3396 16.083 36.2812 16.0583C36.2227 16.0336 36.1599 16.0209 36.0966 16.0209C36.0332 16.0209 35.9705 16.0336 35.912 16.0583C35.8535 16.083 35.8005 16.1192 35.7559 16.1649L35.3604 16.565C35.3692 16.4942 35.3619 16.4222 35.339 16.3547C35.3161 16.2871 35.2782 16.2258 35.2283 16.1753C35.1838 16.1297 35.1307 16.0935 35.0722 16.0687C35.0138 16.044 34.951 16.0313 34.8877 16.0313C34.8243 16.0313 34.7615 16.044 34.7031 16.0687C34.6446 16.0935 34.5915 16.1297 34.547 16.1753L34.1825 16.5442C34.1932 16.4721 34.1873 16.3985 34.1654 16.3291C34.1435 16.2597 34.106 16.1964 34.0559 16.144C34.0114 16.0984 33.9584 16.0622 33.8999 16.0374C33.8414 16.0127 33.7787 16 33.7153 16C33.6519 16 33.5892 16.0127 33.5307 16.0374C33.4722 16.0622 33.4192 16.0984 33.3746 16.144L32.0683 17.4621C31.9609 17.444 31.8514 17.444 31.744 17.4621C31.4903 17.5258 31.253 17.6438 31.0482 17.8082C30.8433 17.9726 30.6757 18.1796 30.5567 18.4151C30.4824 18.5836 30.4521 18.7685 30.4685 18.9523C30.4849 19.136 30.5475 19.3125 30.6504 19.4648C30.6785 19.497 30.7928 19.6374 30.983 19.8289L31.0983 19.9456L31.2492 20.102C31.9187 20.8465 32.7856 21.3804 33.7467 21.6401L19.8789 35.6431C19.7434 35.7796 19.6671 35.9651 19.6667 36.1585C19.6664 36.352 19.742 36.5377 19.877 36.6748C20.0119 36.8118 20.1952 36.8891 20.3864 36.8894C20.5776 36.8898 20.7611 36.8132 20.8966 36.6767L34.7907 22.6168C35.0443 23.5965 35.5721 24.4813 36.3107 25.1648ZM31.8059 19.2097L31.6868 19.0855C31.6128 19.0007 31.5336 18.9205 31.4497 18.8456C31.4406 18.8114 31.4406 18.7754 31.4497 18.7413C31.5617 18.5651 31.7257 18.4291 31.9183 18.3525C32.3972 18.893 34.1675 20.6634 36.3285 20.0148C35.6913 22.1958 37.4371 23.988 37.9751 24.4811C37.8974 24.6675 37.767 24.8266 37.6002 24.9382C37.5683 24.9382 37.5065 24.9581 37.5449 24.9818C37.5093 24.9495 37.4025 24.8576 37.2563 24.7134L37.1373 24.593C36.4606 23.9121 35.3164 22.7742 35.7718 21.1793C35.7738 21.1661 35.7738 21.1526 35.7718 21.1394C35.7821 21.0766 35.7821 21.0126 35.7718 20.9498C35.7738 20.9366 35.7738 20.9232 35.7718 20.91C35.7656 20.8946 35.7577 20.88 35.7484 20.8663C35.7381 20.8351 35.7236 20.8054 35.7053 20.7781C35.6878 20.7524 35.668 20.7283 35.6463 20.7061L35.5788 20.6501C35.552 20.6302 35.5227 20.6139 35.4916 20.6018C35.4765 20.5954 35.4621 20.5874 35.4485 20.5781H35.4092C35.3763 20.5719 35.3427 20.5719 35.3098 20.5781H35.1796C33.5986 21.055 32.475 19.8934 31.8059 19.2097Z" fill="#BD66AD"/>
</svg>
