<svg width="65" height="64" viewBox="0 0 65 64" fill="none" xmlns="http://www.w3.org/2000/svg">
<circle cx="32.3335" cy="32" r="31.25" stroke="#1D729C" stroke-width="1.5"/>
<path d="M25.2731 35.5938C26.0252 35.595 26.7608 35.3751 27.3867 34.9617C28.0127 34.5484 28.5009 33.9603 28.7895 33.2719C29.0782 32.5834 29.1543 31.8255 29.0084 31.0942C28.8624 30.3628 28.5008 29.6908 27.9694 29.1631C27.4381 28.6355 26.7607 28.276 26.0232 28.1301C25.2856 27.9842 24.521 28.0585 23.826 28.3435C23.1311 28.6286 22.537 29.1116 22.119 29.7314C21.7011 30.3512 21.478 31.08 21.478 31.8256C21.478 32.8239 21.8776 33.7815 22.5892 34.488C23.3007 35.1945 24.266 35.5922 25.2731 35.5938ZM25.2731 29.8778C25.662 29.8778 26.0421 29.9921 26.3654 30.2063C26.6888 30.4204 26.9408 30.7248 27.0896 31.0809C27.2384 31.4371 27.2773 31.8289 27.2014 32.207C27.1256 32.5851 26.9383 32.9323 26.6634 33.2049C26.3884 33.4775 26.0381 33.6631 25.6567 33.7383C25.2753 33.8135 24.88 33.7749 24.5208 33.6274C24.1615 33.4799 23.8544 33.2301 23.6384 32.9096C23.4224 32.5891 23.3071 32.2122 23.3071 31.8268C23.3071 31.5708 23.3579 31.3174 23.4567 31.0809C23.5555 30.8445 23.7003 30.6296 23.8829 30.4486C24.0655 30.2677 24.2822 30.1241 24.5208 30.0262C24.7593 29.9282 25.015 29.8778 25.2731 29.8778ZM34.5383 31.3386C34.3013 31.3741 28.7375 32.3174 28.7375 35.9401V36.0282H23.0874C22.8173 36.0282 22.5583 36.1345 22.3674 36.3238C22.1764 36.5131 22.0692 36.7698 22.0692 37.0375C22.0692 37.3052 22.1764 37.5619 22.3674 37.7512C22.5583 37.9405 22.8173 38.0469 23.0874 38.0469H54.2818C54.4725 38.0486 54.6599 37.9969 54.8222 37.8977C54.9846 37.7985 55.1153 37.6558 55.1995 37.4861C55.2836 37.3164 55.3176 37.1266 55.2976 36.9386C55.2776 36.7505 55.2044 36.5719 55.0865 36.4233C55.2 36.2488 55.2561 36.0436 55.247 35.8361C55.01 32.6147 51.9553 31.4879 50.3743 31.3411H34.7444L34.5383 31.3386ZM50.2028 33.3402C50.5644 33.3818 53.0328 33.7513 53.1649 35.9694C53.1621 35.9889 53.1621 36.0087 53.1649 36.0282H30.7838V35.9339C30.7838 34.385 33.6793 33.5335 34.8036 33.3341L50.2028 33.3402ZM56.6502 39.7267C56.6502 39.9944 56.543 40.2511 56.352 40.4404C56.1611 40.6297 55.9021 40.7361 55.632 40.7361H37.5399C36.065 42.7325 34.1481 44.3674 31.9365 45.515C29.7249 46.6626 27.2774 47.2925 24.7819 47.3562C21.9814 47.3554 19.2335 46.6022 16.8304 45.1766C14.4274 43.7509 12.4591 41.7063 11.1349 39.2601C9.81067 36.8139 9.18008 34.0577 9.31019 31.2845C9.4403 28.5114 10.3262 25.825 11.8738 23.5113C13.4213 21.1975 15.5726 19.3428 18.0987 18.1444C20.6249 16.9461 23.4315 16.4489 26.22 16.7058C29.0085 16.9627 31.6746 17.964 33.9347 19.6033C36.1949 21.2426 37.9645 23.4585 39.0555 26.0153L37.3683 26.7139C36.4054 24.4597 34.8441 22.5062 32.8506 21.0614C30.857 19.6165 28.5058 18.7343 26.0468 18.5084C23.5878 18.2825 21.113 18.7215 18.8856 19.7786C16.6582 20.8358 14.7615 22.4716 13.3971 24.512C12.0327 26.5525 11.2516 28.9214 11.137 31.3668C11.0223 33.8122 11.5784 36.2427 12.746 38.3998C13.9136 40.5569 15.6491 42.3601 17.768 43.6174C19.8869 44.8748 22.3099 45.5394 24.7795 45.5406C26.7625 45.4883 28.7138 45.0349 30.5137 44.2083C32.3136 43.3817 33.9242 42.1993 35.2467 40.7336H30.9208C29.0986 41.9856 26.93 42.6478 24.7129 42.6291C22.4959 42.6105 20.3389 41.9119 18.5384 40.6294C16.7379 39.3468 15.382 37.5432 14.6569 35.4661C13.9319 33.3891 13.8732 31.1405 14.489 29.0291C15.1048 26.9177 16.3649 25.047 18.0961 23.6739C19.8274 22.3008 21.945 21.4927 24.1582 21.3605C26.3713 21.2283 28.5715 21.7784 30.4566 22.9354C32.3417 24.0924 33.8192 25.7996 34.6864 27.8224L32.9992 28.532C32.3046 26.8905 31.1269 25.4947 29.6197 24.527C28.1125 23.5593 26.346 23.0646 24.5508 23.1075C22.7556 23.1504 21.0152 23.7289 19.5569 24.7675C18.0985 25.8061 16.9899 27.2565 16.3759 28.9293C15.7619 30.602 15.671 32.4195 16.1151 34.1443C16.5592 35.8691 17.5177 37.421 18.8653 38.5975C20.2129 39.774 21.8871 40.5203 23.6692 40.739C25.4513 40.9577 27.2585 40.6386 28.8548 39.8233C28.8519 39.7826 28.8519 39.7417 28.8548 39.701C28.8548 39.4333 28.9621 39.1766 29.153 38.9873C29.344 38.798 29.603 38.6916 29.873 38.6916H55.632C55.7677 38.6916 55.9021 38.7185 56.0272 38.7706C56.1523 38.8228 56.2656 38.8992 56.3604 38.9954C56.4553 39.0917 56.5298 39.2057 56.5796 39.3308C56.6293 39.456 56.6534 39.5898 56.6502 39.7243V39.7267Z" fill="#1D729C"/>
</svg>
