<svg width="65" height="64" viewBox="0 0 65 64" fill="none" xmlns="http://www.w3.org/2000/svg">
<circle cx="32.3333" cy="32" r="31.25" stroke="#398C70" stroke-width="1.5"/>
<path d="M52.9567 27.4076C52.6593 27.4076 52.374 27.5271 52.1637 27.7399C51.9533 27.9526 51.8352 28.2411 51.8352 28.542V31.5785H50.589V22.6493C50.589 22.2863 50.6762 21.2792 50.7136 20.9717C50.751 20.6641 51.1647 20.499 51.3766 20.4221C51.5662 20.365 51.7349 20.2527 51.8617 20.0991C51.9885 19.9455 52.0677 19.7576 52.0894 19.5587C52.1701 19.4031 52.2129 19.2302 52.214 19.0545C52.214 18.7536 52.0959 18.4651 51.8855 18.2524C51.6752 18.0396 51.3899 17.9201 51.0925 17.9201H41.3287C41.0313 17.9201 40.746 18.0396 40.5357 18.2524C40.3253 18.4651 40.2072 18.7536 40.2072 19.0545C40.2042 19.2131 40.2353 19.3704 40.2981 19.5158C40.3609 19.6611 40.454 19.791 40.5711 19.8965C40.6459 20.063 40.7644 20.2055 40.9138 20.3087C41.1539 20.4622 41.3814 20.635 41.5942 20.8255C41.7484 21.2069 41.7916 21.625 41.7188 22.0305C41.6975 22.1166 41.6866 22.2051 41.6864 22.2939V31.5797H37.0868V22.6493C37.0868 22.2863 37.174 21.2792 37.2114 20.9717C37.2488 20.6641 37.6575 20.499 37.8694 20.4221C38.0588 20.3639 38.2274 20.2513 38.3548 20.098C38.4822 19.9448 38.5629 19.7574 38.5871 19.5587C38.6625 19.4015 38.7017 19.2292 38.7018 19.0545C38.7018 18.7536 38.5836 18.4651 38.3733 18.2524C38.163 18.0396 37.8777 17.9201 37.5802 17.9201H27.824C27.5265 17.9201 27.2413 18.0396 27.0309 18.2524C26.8206 18.4651 26.7024 18.7536 26.7024 19.0545C26.6989 19.2127 26.7291 19.3698 26.791 19.5151C26.853 19.6604 26.9452 19.7905 27.0613 19.8965C27.138 20.0618 27.2561 20.2039 27.404 20.3087C27.6465 20.461 27.8758 20.6339 28.0894 20.8255C28.2437 21.2069 28.2869 21.625 28.214 22.0305C28.1879 22.1158 28.1749 22.2046 28.1754 22.2939V31.5797H23.582V22.6493C23.582 22.2863 23.6742 21.2792 23.7066 20.9717C23.739 20.6641 24.1577 20.499 24.3646 20.4221C24.5544 20.3646 24.7235 20.2522 24.851 20.0988C24.9785 19.9454 25.0589 19.7577 25.0824 19.5587C25.1611 19.4023 25.2037 19.2299 25.207 19.0545C25.207 18.7536 25.0889 18.4651 24.8785 18.2524C24.6682 18.0396 24.3829 17.9201 24.0855 17.9201H14.3255C14.0967 17.9161 13.8722 17.9831 13.6821 18.1119C13.492 18.2407 13.3454 18.4253 13.262 18.6408C13.1785 18.8563 13.1623 19.0925 13.2154 19.3176C13.2685 19.5428 13.3884 19.7461 13.5591 19.9003C13.6356 20.0672 13.7558 20.2097 13.9067 20.3124C14.1469 20.466 14.3744 20.6388 14.5872 20.8292C14.7414 21.2107 14.7846 21.6288 14.7118 22.0342C14.6884 22.1201 14.6754 22.2086 14.6731 22.2977V31.5835H12.8251V28.5471C12.8251 28.245 12.7064 27.9554 12.4953 27.7418C12.2841 27.5282 11.9978 27.4082 11.6992 27.4082C11.4005 27.4082 11.1142 27.5282 10.903 27.7418C10.6919 27.9554 10.5732 28.245 10.5732 28.5471V40.6878C10.5732 40.9899 10.6919 41.2795 10.903 41.4931C11.1142 41.7067 11.4005 41.8267 11.6992 41.8267C11.9978 41.8267 12.2841 41.7067 12.4953 41.4931C12.7064 41.2795 12.8251 40.9899 12.8251 40.6878V37.6514H14.6856V41.5588C14.6843 42.755 15.1527 43.9028 15.988 44.7497C16.8232 45.5967 17.9568 46.0734 19.1394 46.075C20.3321 46.0419 21.4649 45.5392 22.2967 44.6741C23.1285 43.809 23.5937 42.6496 23.5932 41.4428V37.6514H28.1891V41.5588C28.1878 42.7542 28.6556 43.9012 29.4897 44.748C30.3238 45.5947 31.4561 46.072 32.6379 46.075C33.8317 46.0435 34.966 45.5416 35.7992 44.6763C36.6323 43.8109 37.0984 42.6507 37.098 41.4428V37.6514H41.6988V41.5588C41.6975 42.7542 42.1653 43.9012 42.9994 44.748C43.8336 45.5947 44.9659 46.072 46.1477 46.075C47.341 46.0422 48.4746 45.5399 49.3075 44.6749C50.1404 43.8098 50.6069 42.6503 50.6077 41.4428V37.6514H51.8539V40.6878C51.8539 40.9899 51.9725 41.2795 52.1837 41.4931C52.3948 41.7067 52.6812 41.8267 52.9798 41.8267C53.2784 41.8267 53.5648 41.7067 53.7759 41.4931C53.9871 41.2795 54.1057 40.9899 54.1057 40.6878V28.5471C54.1057 28.3968 54.0762 28.248 54.0189 28.1094C53.9616 27.9708 53.8777 27.845 53.7719 27.7395C53.6662 27.634 53.5408 27.5507 53.403 27.4946C53.2652 27.4385 53.1177 27.4106 52.9692 27.4126L52.9567 27.4076ZM48.8307 20.2015C48.7692 20.3639 48.7273 20.5332 48.7061 20.7057C48.6512 21.1343 48.5814 22.3557 48.5652 22.5876V24.0018H43.7102V22.4073C43.8431 21.6697 43.7773 20.9095 43.5195 20.2066L48.8307 20.2015ZM48.564 31.5835H43.7102V26.2744H48.5615L48.564 31.5835ZM35.3259 20.2015C35.267 20.3647 35.2252 20.5337 35.2013 20.7057C35.1465 21.1343 35.0767 22.3557 35.0605 22.5876V27.792H30.2067V22.4073C30.3395 21.6702 30.2758 20.9106 30.0222 20.2066L35.3259 20.2015ZM35.048 31.5835H30.2067V30.0709H35.0468L35.048 31.5835ZM21.8212 20.2015C21.7648 20.3655 21.7231 20.5342 21.6966 20.7057C21.6417 21.1343 21.5719 22.3557 21.5557 22.5876V25.5194H16.7081V22.4073C16.8382 21.6696 16.7724 20.9102 16.5175 20.2066L21.8212 20.2015ZM21.5607 31.5835H16.7081V27.787H21.5595L21.5607 31.5835ZM19.1357 44.0268C18.4911 44.0251 17.8735 43.7646 17.4188 43.3025C16.964 42.8404 16.7093 42.2146 16.7106 41.5626V37.6552H21.562V41.4504C21.5673 42.1148 21.3168 42.7553 20.8635 43.2362C20.4102 43.7171 19.7896 44.0006 19.1332 44.0268H19.1357ZM32.6342 44.0268C31.99 44.0238 31.3732 43.7628 30.9187 43.301C30.4643 42.8392 30.2091 42.2142 30.2091 41.5626V37.6552H35.0493V41.4504C35.0547 42.1132 34.8056 42.7522 34.3544 43.2328C33.9032 43.7134 33.2851 43.9981 32.6305 44.0268H32.6342ZM46.1377 44.0268C45.4931 44.0251 44.8755 43.7646 44.4208 43.3025C43.966 42.8404 43.7113 42.2146 43.7126 41.5626V37.6552H48.5727V41.4504C48.5793 42.1165 48.3282 42.7588 47.873 43.2401C47.4178 43.7215 46.7946 44.0038 46.1364 44.0268H46.1377ZM51.8315 35.3788H12.8263V33.8662H51.8315V35.3788Z" fill="#398C70"/>
</svg>
