<svg width="64" height="64" viewBox="0 0 64 64" fill="none" xmlns="http://www.w3.org/2000/svg">
<circle cx="32" cy="32" r="31.25" stroke="#E74A66" stroke-width="1.5"/>
<path d="M31.4361 32.6399C31.4361 33.6998 30.5768 34.5591 29.5169 34.5591C28.4569 34.5591 27.5977 33.6998 27.5977 32.6399C27.5977 31.58 28.4569 30.7207 29.5169 30.7207C30.5768 30.7207 31.4361 31.58 31.4361 32.6399Z" fill="#E74A66" stroke="#E74A66"/>
<path d="M41.1001 32.6399C41.1001 33.6998 40.2409 34.5591 39.1809 34.5591C38.121 34.5591 37.2617 33.6998 37.2617 32.6399C37.2617 31.58 38.121 30.7207 39.1809 30.7207C40.2409 30.7207 41.1001 31.58 41.1001 32.6399Z" fill="#E74A66" stroke="#E74A66"/>
<path d="M18.1631 41.2408C17.8121 41.2408 17.5239 40.9527 17.5239 40.6016V24.6912C17.5239 24.3401 17.8121 24.052 18.1631 24.052C18.5142 24.052 18.8023 24.3401 18.8023 24.6912V40.6016C18.8023 40.9527 18.5142 41.2408 18.1631 41.2408Z" fill="#E74A66" stroke="#E74A66"/>
<path d="M27.7483 38.5827L27.8092 38.0281H27.2513H24.6016C22.8298 38.0281 21.3896 36.588 21.3896 34.8161V30.4769C21.3896 28.705 22.8298 27.2649 24.6016 27.2649H44.1088C45.8807 27.2649 47.3209 28.705 47.3209 30.4769V34.8161C47.3209 36.588 45.8807 38.0281 44.1088 38.0281H41.1137H40.5402L40.6183 38.5962L42.3287 51.0411C42.3109 52.7978 40.8777 54.2201 39.1168 54.2201H29.6064C27.8346 54.2201 26.3944 52.78 26.3944 51.0081V50.9075L27.7483 38.5827ZM41.0498 51.0971L41.0522 51.0505L41.0458 51.0044L39.3306 38.4604L39.2715 38.0281H38.8353H29.5552H29.1074L29.0583 38.4733L27.6759 51.0045L27.6719 51.0401L27.6731 51.076C27.7077 52.1126 28.5552 52.9417 29.6064 52.9417H39.1168C40.1538 52.9417 40.9982 52.1286 41.0498 51.0971ZM44.0961 36.7625C45.1815 36.7625 46.0425 35.8829 46.0425 34.8161V30.4769C46.0425 29.3915 45.1629 28.5305 44.0961 28.5305H24.5888C23.5034 28.5305 22.6424 29.41 22.6424 30.4769V34.8161C22.6424 35.9015 23.522 36.7625 24.5888 36.7625H44.0961Z" fill="#E74A66" stroke="#E74A66"/>
<path d="M39.1495 13.7075C39.1578 13.7152 39.1638 13.7209 39.1677 13.7246C39.9957 14.622 40.4392 15.3029 40.6923 15.8807C40.9441 16.4553 41.0209 16.957 41.0766 17.533L41.0765 17.533L41.0779 17.5444C41.0817 17.5759 41.0854 17.6078 41.0891 17.6402C41.1214 17.9169 41.1571 18.2238 41.2664 18.5517L41.3027 18.6606C41.4152 19.0302 41.6035 19.561 41.8808 19.9899C42.1382 20.3879 42.6152 20.9058 43.3187 20.7665C43.4717 20.7397 43.6302 20.7782 43.7377 20.8619C43.8525 20.9511 43.9287 21.0891 43.9432 21.2512C44.0052 22.0468 43.6239 22.963 42.9026 23.6167L42.9005 23.6186C42.1017 24.3508 41.0183 24.6617 39.8246 24.4666L39.8225 24.4662C39.5388 24.4211 39.3456 24.1584 39.3929 23.861C39.4376 23.5802 39.7096 23.3854 39.9947 23.4309C41.0627 23.6132 41.7752 23.2285 42.1899 22.849C42.3226 22.7321 42.4338 22.6037 42.5247 22.4824L42.9195 21.9561L42.3066 21.7167C41.6657 21.4663 40.8429 20.7922 40.2862 18.9647L40.2863 18.9647L40.2833 18.9554C40.1134 18.4345 40.0765 18.0521 40.0393 17.6672L40.0368 17.6415L40.0366 17.6399L40.0351 17.6247C39.9968 17.2416 39.9547 16.82 39.724 16.301C39.4947 15.7849 39.0934 15.2013 38.3833 14.4321L38.3817 14.4304C37.4594 13.4406 35.9535 13.0624 34.574 13.0457C33.1961 13.029 31.7661 13.3705 30.9368 14.0189L30.9368 14.0189L30.935 14.0203C30.074 14.6997 29.5827 15.3103 29.3032 15.9372C29.0338 16.5417 28.9817 17.1227 28.9326 17.6706C28.9314 17.6834 28.9303 17.6961 28.9291 17.7089L28.9289 17.7114C28.8652 18.4631 28.7929 19.2193 28.3175 20.0349C27.8362 20.8493 27.3709 21.4056 26.7272 21.7382L26.1057 22.0593L26.6108 22.5434C26.9585 22.8767 27.3774 23.1585 27.8173 23.3311C28.2536 23.5022 28.7485 23.5797 29.2201 23.4436L29.2201 23.4437L29.2294 23.4409C29.494 23.359 29.7899 23.5187 29.868 23.7918L29.8678 23.7918L29.8711 23.8023C29.953 24.0669 29.7933 24.3628 29.5202 24.4408L29.5175 24.4416C29.2712 24.5135 29.0093 24.5472 28.7517 24.5495L28.7487 24.5368C27.9499 24.5368 27.1165 24.2178 26.3973 23.6923C25.678 23.1668 25.1096 22.4611 24.8228 21.7414L24.8199 21.7342L24.8169 21.7271C24.7558 21.5866 24.766 21.4162 24.857 21.2733L24.857 21.2733L24.8603 21.268C24.9397 21.1396 25.0869 21.0447 25.2637 21.03C25.7275 21.0015 26.1319 20.9157 26.5027 20.6427C26.8533 20.3846 27.1234 19.9943 27.4147 19.4895C27.7651 18.8901 27.8221 18.2976 27.8791 17.7056C27.8825 17.6696 27.886 17.6336 27.8895 17.5976L27.8896 17.5976L27.8901 17.5917C27.9413 16.9965 27.9986 16.3939 28.2464 15.7426C28.4915 15.0987 28.9336 14.3824 29.7889 13.6053L29.996 13.4172C30.0296 13.3915 30.0678 13.3631 30.1106 13.3324C30.3308 13.1742 30.6589 12.9642 31.0722 12.7549C31.9017 12.3348 33.049 11.9304 34.3423 11.9304C35.8226 11.9304 37.0186 12.3677 37.8552 12.8153C38.2735 13.039 38.5999 13.2644 38.8243 13.4364C38.9364 13.5224 39.0226 13.5947 39.0817 13.6465C39.1113 13.6724 39.1339 13.693 39.1495 13.7075ZM31.2447 14.4128C32.6527 13.312 36.4415 13.0816 38.0159 14.7712C39.3969 16.2673 39.4622 16.9203 39.5389 17.6872L39.5391 17.6896L31.2447 14.4128Z" fill="#E74A66" stroke="#E74A66"/>
<path d="M30.439 19.8657C30.439 17.7099 32.1991 15.9497 34.355 15.9497C36.5108 15.9497 38.271 17.7099 38.271 19.8657C38.271 22.0216 36.5108 23.7817 34.355 23.7817C32.1991 23.7817 30.439 22.0216 30.439 19.8657ZM31.487 19.8529C31.487 21.4346 32.7732 22.7209 34.355 22.7209C35.9367 22.7209 37.223 21.4346 37.223 19.8529C37.223 18.2712 35.9367 16.9849 34.355 16.9849C32.7732 16.9849 31.487 18.2712 31.487 19.8529Z" fill="#E74A66" stroke="#E74A66"/>
</svg>
