<svg width="65" height="64" viewBox="0 0 65 64" fill="none" xmlns="http://www.w3.org/2000/svg">
<circle cx="32.6667" cy="32" r="31.25" stroke="#1C7288" stroke-width="1.5"/>
<path d="M36.2122 33.7919C38.4522 33.7919 40.2826 31.9743 40.2826 29.7215C40.2826 27.4687 38.465 25.6511 36.2122 25.6511C33.9594 25.6511 32.1418 27.4687 32.1418 29.7215C32.1418 31.9743 33.9594 33.7919 36.2122 33.7919ZM36.2122 27.7119C37.3258 27.7119 38.2346 28.6207 38.2346 29.7343C38.2346 30.8479 37.3258 31.7567 36.2122 31.7567C35.0986 31.7567 34.1898 30.8479 34.1898 29.7343C34.1898 28.6207 35.0986 27.7119 36.2122 27.7119Z" fill="#1C7288"/>
<path d="M36.3915 12.5439C32.0651 12.5439 27.9051 14.1183 24.6539 16.9599C24.4363 17.1519 24.3083 17.4207 24.3083 17.7023C24.3083 17.9839 24.4107 18.2655 24.6155 18.4575L29.4411 23.1679C29.7995 23.5135 30.4011 23.5519 30.7851 23.2447C32.3851 21.9903 34.3051 21.3247 36.3403 21.3247C41.3067 21.3247 45.3387 25.3695 45.3387 30.3359C45.3387 33.1647 43.9819 35.8399 41.7035 37.5423V37.4527C41.7035 35.8015 40.3595 34.4575 38.7083 34.4575H32.2955C32.3979 34.1503 32.4491 33.8303 32.4491 33.4975V31.7055C32.4491 30.0543 31.1051 28.7103 29.4539 28.7103H17.1531C16.5899 28.7103 16.1291 29.1711 16.1291 29.7343C16.1291 30.2975 16.5899 30.7583 17.1531 30.7583H29.4539C29.9787 30.7583 30.4139 31.1807 30.4139 31.7183V33.5103C30.4139 34.0351 29.9915 34.4703 29.4539 34.4703H16.3211C14.6699 34.4703 13.3259 35.8143 13.3259 37.4655V38.7455C13.3259 39.4751 13.5947 40.1791 14.0811 40.7295C13.5947 41.2799 13.3259 41.9711 13.3259 42.7135V46.3743C13.3259 48.0255 14.6699 49.3695 16.3211 49.3695H33.4731C34.4331 49.3695 35.3419 48.9087 35.9051 48.1279H35.9691C36.1099 48.1407 36.2507 48.1535 36.4043 48.1535C46.2219 48.1535 54.1963 40.1663 54.1963 30.3615C54.1963 20.5567 46.2091 12.5695 36.4043 12.5695L36.3915 12.5439ZM36.4683 46.0927V42.7007C36.4683 42.3679 36.4171 42.0479 36.3147 41.7407H38.7083C39.7963 41.7407 40.8075 41.1391 41.3323 40.1663C45.0699 38.2591 47.3995 34.4959 47.3995 30.3487C47.3995 24.2559 42.4459 19.2895 36.3531 19.2895C34.1771 19.2895 32.0651 19.9167 30.2731 21.1071L26.8811 17.7919C29.6075 15.7183 32.9867 14.5919 36.4043 14.5919C45.0827 14.5919 52.1483 21.6575 52.1483 30.3359C52.1483 39.0143 45.1339 46.0287 36.4683 46.0799V46.0927ZM15.3611 37.4655C15.3611 36.9407 15.7835 36.5055 16.3211 36.5055H38.7083C39.2331 36.5055 39.6683 36.9279 39.6683 37.4655V38.7455C39.6683 39.2703 39.2459 39.7055 38.7083 39.7055H16.3211C15.7963 39.7055 15.3611 39.2831 15.3611 38.7455V37.4655ZM15.3611 42.6879C15.3611 42.1631 15.7835 41.7279 16.3211 41.7279H33.4731C33.9979 41.7279 34.4331 42.1503 34.4331 42.6879V46.3487C34.4331 46.8735 34.0107 47.2959 33.4731 47.2959H16.3211C15.7963 47.2959 15.3611 46.8735 15.3611 46.3487V42.6879Z" fill="#1C7288"/>
</svg>
