<svg width="65" height="64" viewBox="0 0 65 64" fill="none" xmlns="http://www.w3.org/2000/svg">
<circle cx="32.6665" cy="32" r="31.25" stroke="#C46518" stroke-width="1.5"/>
<path d="M37.7865 21.8369C37.6329 21.5809 37.3769 21.4017 37.0825 21.3505C36.7881 21.2993 36.4937 21.3761 36.2633 21.5681C35.3033 22.3617 34.0745 22.7969 32.8329 22.7969C31.5913 22.7969 30.2729 22.3233 29.2873 21.4657C29.0697 21.2737 28.7753 21.1841 28.4681 21.2225C28.1737 21.2609 27.9177 21.4273 27.7513 21.6705L21.8249 30.7201C21.5305 31.1809 21.6329 31.7953 22.0809 32.1153C25.1145 34.3041 28.6985 35.4689 32.4489 35.4689C36.1993 35.4689 39.8089 34.3041 42.8553 32.0769C43.2905 31.7697 43.4057 31.1809 43.1369 30.7201L37.7993 21.8241L37.7865 21.8369ZM32.4361 33.4209C29.4537 33.4209 26.5865 32.5889 24.0777 31.0017L28.8521 23.7057C31.1561 25.1393 34.2281 25.1905 36.5705 23.8209L40.8457 30.9505C38.3241 32.5633 35.4313 33.4209 32.4233 33.4209H32.4361ZM45.0185 15.4753H19.9049C17.6265 15.4753 15.7705 17.3313 15.7705 19.6097V43.9553C15.7705 46.2337 17.6265 48.0897 19.9049 48.0897H45.0185C47.2969 48.0897 49.1529 46.2337 49.1529 43.9553V19.6225C49.1529 17.3441 47.2969 15.4881 45.0185 15.4881V15.4753ZM45.0185 45.8369H19.9049C18.8809 45.8369 18.0361 45.0049 18.0361 43.9681V40.0769C18.5993 40.3585 19.2265 40.5249 19.9049 40.5249H45.0185C45.6841 40.5249 46.3241 40.3585 46.8873 40.0769V43.9681C46.8873 44.9921 46.0553 45.8369 45.0185 45.8369ZM46.8745 36.3777C46.8745 37.4017 46.0425 38.2465 45.0057 38.2465H19.9049C18.8809 38.2465 18.0361 37.4145 18.0361 36.3777V19.6225C18.0361 18.5985 18.8681 17.7537 19.9049 17.7537H45.0185C46.0425 17.7537 46.8873 18.5857 46.8873 19.6225V36.3777H46.8745ZM21.8377 42.0353H26.3945V44.3137H21.8377V42.0353ZM37.7737 42.0353H40.0521V44.3137H37.7737V42.0353ZM42.3177 42.0353H44.5961V44.3137H42.3177V42.0353Z" fill="#C46518"/>
</svg>
